<svg width="129" height="42" viewBox="0 0 129 42" fill="none" xmlns="http://www.w3.org/2000/svg">
<path d="M40 20C40 14.6957 37.8929 9.60859 34.1421 5.85786C30.3914 2.10714 25.3043 4.00466e-07 20 0C14.6957 -4.00466e-07 9.60859 2.10714 5.85787 5.85786C2.10714 9.60859 8.00932e-07 14.6957 0 20L20 20H40Z" fill="#FF6600"/>
<path d="M38.8 21.6C38.8 26.48 36.8193 31.1601 33.2936 34.6108C29.7679 38.0614 24.9861 40 20 40C15.0139 40 10.2321 38.0614 6.70638 34.6108C3.18069 31.1601 1.19998 26.48 1.19998 21.6" stroke="#FF6600" stroke-width="2.4"/>
<path d="M34.8 21.6C34.8 25.4191 33.2407 29.0818 30.4652 31.7823C27.6896 34.4829 23.9252 36 20 36C16.0748 36 12.3103 34.4829 9.5348 31.7823C6.75926 29.0818 5.19998 25.4191 5.19998 21.6" stroke="#FF6600" stroke-width="2.4"/>
<path d="M51.49 31V9.46C52.57 9.28 53.485 9.14 54.235 9.04C54.985 8.94 55.675 8.87 56.305 8.83C56.935 8.79 57.61 8.77 58.33 8.77C59.95 8.77 61.405 9.045 62.695 9.595C63.995 10.145 65.02 10.935 65.77 11.965C66.53 12.985 66.91 14.2 66.91 15.61C66.91 16.94 66.575 18.09 65.905 19.06C65.245 20.02 64.385 20.78 63.325 21.34C62.265 21.89 61.14 22.22 59.95 22.33C59.5 22.37 59.02 22.375 58.51 22.345C58.01 22.315 57.48 22.22 56.92 22.06C57.07 21.68 57.26 21.29 57.49 20.89C57.72 20.48 58 20.13 58.33 19.84C58.66 19.54 59.05 19.37 59.5 19.33C60.05 19.28 60.55 19.085 61 18.745C61.46 18.395 61.825 17.95 62.095 17.41C62.365 16.86 62.5 16.26 62.5 15.61C62.5 14.92 62.325 14.295 61.975 13.735C61.625 13.165 61.135 12.71 60.505 12.37C59.885 12.03 59.16 11.86 58.33 11.86C57.79 11.86 57.37 11.875 57.07 11.905C56.77 11.935 56.35 11.98 55.81 12.04V31H51.49ZM80.4273 31.42C78.1173 31.42 76.1523 30.925 74.5323 29.935C72.9223 28.935 71.6923 27.58 70.8423 25.87C69.9923 24.16 69.5673 22.23 69.5673 20.08C69.5673 18.51 69.8073 17.04 70.2873 15.67C70.7773 14.3 71.4873 13.095 72.4173 12.055C73.3473 11.015 74.4823 10.205 75.8223 9.625C77.1723 9.035 78.7073 8.74 80.4273 8.74C82.3873 8.74 84.0523 9.075 85.4223 9.745C86.8023 10.415 87.9223 11.305 88.7823 12.415C89.6423 13.525 90.2673 14.75 90.6573 16.09C91.0573 17.42 91.2573 18.75 91.2573 20.08C91.2573 21.55 91.0173 22.965 90.5373 24.325C90.0673 25.675 89.3723 26.885 88.4523 27.955C87.5323 29.025 86.3973 29.87 85.0473 30.49C83.7073 31.11 82.1673 31.42 80.4273 31.42ZM80.4273 28.33C81.5273 28.33 82.5573 28.01 83.5173 27.37C84.4773 26.72 85.2523 25.78 85.8423 24.55C86.4323 23.32 86.7273 21.83 86.7273 20.08C86.7273 18.51 86.4773 17.105 85.9773 15.865C85.4773 14.615 84.7573 13.63 83.8173 12.91C82.8773 12.19 81.7473 11.83 80.4273 11.83C79.0473 11.83 77.8873 12.21 76.9473 12.97C76.0173 13.73 75.3123 14.735 74.8323 15.985C74.3623 17.235 74.1273 18.6 74.1273 20.08C74.1273 21.11 74.2623 22.12 74.5323 23.11C74.8023 24.09 75.1973 24.975 75.7173 25.765C76.2473 26.545 76.9073 27.17 77.6973 27.64C78.4873 28.1 79.3973 28.33 80.4273 28.33ZM94.4392 31V9.46C95.5192 9.28 96.4342 9.14 97.1842 9.04C97.9342 8.94 98.6242 8.87 99.2542 8.83C99.8842 8.79 100.559 8.77 101.279 8.77C102.849 8.77 104.284 9.035 105.584 9.565C106.884 10.085 107.919 10.845 108.689 11.845C109.469 12.845 109.859 14.05 109.859 15.46C109.859 16.64 109.584 17.675 109.034 18.565C108.494 19.455 107.779 20.17 106.889 20.71L106.049 21.04L106.709 21.37C107.319 21.89 107.794 22.505 108.134 23.215C108.474 23.915 108.759 24.685 108.989 25.525C109.229 26.365 109.479 27.25 109.739 28.18C109.999 29.1 110.349 30.04 110.789 31H106.379C106.029 30.23 105.739 29.415 105.509 28.555C105.289 27.695 105.069 26.85 104.849 26.02C104.629 25.19 104.354 24.425 104.024 23.725C103.694 23.025 103.249 22.46 102.689 22.03C102.269 22.06 101.819 22.06 101.339 22.03C100.869 22 100.379 21.91 99.8692 21.76C100.019 21.38 100.209 20.985 100.439 20.575C100.669 20.165 100.949 19.81 101.279 19.51C101.609 19.21 101.999 19.04 102.449 19C102.999 18.95 103.499 18.77 103.949 18.46C104.409 18.14 104.774 17.725 105.044 17.215C105.314 16.695 105.449 16.11 105.449 15.46C105.449 14.77 105.264 14.155 104.894 13.615C104.524 13.065 104.024 12.635 103.394 12.325C102.764 12.015 102.059 11.86 101.279 11.86C100.739 11.86 100.319 11.875 100.019 11.905C99.7192 11.935 99.2992 11.98 98.7592 12.04V31H94.4392ZM118.307 31V12.28H112.607V9.19H128.267V12.28H122.567V31H118.307Z" fill="black"/>
</svg>
